# xmcd CD database file
#
# Track frame offsets:
#	150
#	17893
#	44301
#	60177
#	79820
#	101056
#	115313
#	131249
#	148144
#	164586
#	182264
#	198453
#	215726
#	233230
#	249529
#	264421
#	280075
#	296864
#
# Disc length: 4242 seconds
#
# Revision: 2
# Processed by: cddbd v1.4b41PL1 Copyright (c) Steve Scherf et al.
# Submitted via: Feurio! 1.60 - http://www.feurio.com
#
DISCID=14109012
DTITLE=Various Artist - 8/2000 Rendezvous der Stars
DYEAR=1900
DGENRE=
TTITLE0=REDNEX - SPRIT OF THE HAWK (MAXI)
TTITLE1=MEL C - I TURN TO YOU
TTITLE2=Kylie Minogue - On A Night Like This
TTITLE3=ENRIQUE IGLESIAS - COULD I HAVE THIS KISS FOREVER
TTITLE4=Bryan Adams - Inside out
TTITLE5=CHRISTINA AGUILERA - COME ON OVER (ALL I WANT IS YO
TTITLE6=GIGI D'AGOSTINO - ANOTHER WAY
TTITLE7=MODJO - LADY
TTITLE8=ATC - MY HEART BEATS LIKE A DRUM
TTITLE9=CHICANE FEATURING MASON - RADIO EDIT, 'STRONG IN LOVE'
TTITLE10=JODY BERNAL - QUE SI QUE NO
TTITLE11=OLSEN BROTHERS - SUNDAY MORNING
TTITLE12=BASTIAN RAGAS - YOU COMPLETE ME
TTITLE13=ORANGE BLUE - SHE'S GOT THAT LIGHT
TTITLE14=PHIL COLLINS - TWO WORLDS
TTITLE15=CORRS - BREATHLESS
TTITLE16=BACKSTREET BOYS - SHAPE OF MY HEART
TTITLE17=ELTON JOHN - SOMEDAY OUT OF THE BLUE
EXTD=
EXTT0=
EXTT1=
EXTT2=
EXTT3=
EXTT4=
EXTT5=
EXTT6=
EXTT7=
EXTT8=
EXTT9=
EXTT10=
EXTT11=
EXTT12=
EXTT13=
EXTT14=
EXTT15=
EXTT16=
EXTT17=
PLAYORDER=
